# xmcd
#
# Track frame offsets: 
#        150
#        25038
#        52668
#        75440
#        95377
#        103897
#        130978
#        163890
#        187451
#        216301
#
# Disc length: 3180 seconds
#
# Revision: 0
# Processed by: cddbd v1.5.2PL0 Copyright (c) Steve Scherf et al.
# Submitted via: ExactAudioCopy v0.99pb5
#
DISCID=860c6a0a
DTITLE=Dulyasit Srabua and Bert Deivert - 13 Samsen
DYEAR=1900
DGENRE=Blues
TTITLE0=Cypress Grove Blues
TTITLE1=44 Blues
TTITLE2=Come Back Baby
TTITLE3=Black Nanny
TTITLE4=Walk
TTITLE5=Hap-Kru-Nam
TTITLE6=Umpawa
TTITLE7=Ngow
TTITLE8=Dok-Mai-Hai-Khun
TTITLE9=13 Samsen
EXTD=
EXTT0=
EXTT1=
EXTT2=
EXTT3=
EXTT4=
EXTT5=
EXTT6=
EXTT7=
EXTT8=
EXTT9=
PLAYORDER=
